<?xml version="1.0" encoding="utf-8"?>
<svg version="1.1" xmlns:xlink="http://www.w3.org/1999/xlink" width="77px" height="81px" xmlns="http://www.w3.org/2000/svg">
  <defs>
    <linearGradient gradientUnits="userSpaceOnUse" x1="38.5" y1="0" x2="38.5" y2="81" id="LinearGradient121">
      <stop id="Stop122" stop-color="#7ddebc" offset="0" />
      <stop id="Stop123" stop-color="#2b5ec0" offset="1" />
    </linearGradient>
  </defs>
  <g transform="matrix(1 0 0 1 -1381 -139 )">
    <path d="M 68.3269735845872 51.023619140625  L 7.5053620394483 33.4288046875  L 0.639272485050242 64.0864736328125  L 44.159902898341 76.920939453125  L 68.3269735845872 51.023619140625  Z M 66.4622755835262 60.658244140625  L 60.8022037278163 60.658244140625  L 51.4250697579089 71.588908203125  L 61.3935545187114 74.254923828125  L 66.4622755835262 60.658244140625  Z M 76.4042340374228 60.4249677734375  L 68.3269735845872 60.658244140625  L 63.1737738353588 75.499064453125  L 69.5035082224151 80.0479091796875  L 76.4042340374228 60.4249677734375  Z M 27.8312714240933 37.7181572265625  L 27.8363401451581 37.7021611328125  L 27.8312714240933 37.7181572265625  Z M 27.8243441719715 37.7400185546875  L 27.8312714240933 37.71824609375  L 27.8243441719715 37.7400185546875  Z M 27.85551680652 37.641642578125  L 27.853235882041 37.648751953125  L 27.85551680652 37.641642578125  Z M 27.8441121841242 37.677544921875  L 27.8447880135996 37.675412109375  L 27.8441121841242 37.677544921875  Z M 27.8243441719715 37.7400185546875  C 27.8190220148533 37.756814453125  27.8201202377509 37.7533486328125  27.8243441719715 37.7400185546875  Z M 27.8363401451581 37.7021611328125  L 27.8441121841242 37.677544921875  L 27.8363401451581 37.7021611328125  Z M 47.412332248264 43.729044921875  L 48.7111920211228 40.4966787109375  C 48.7111920211228 39.907755859375  47.8769650125387 38.308146484375  46.9899388261961 38.219279296875  L 40 36.340982421875  L 40 0.169459960937502  L 36 0.169459960937502  L 36 34.737640625  L 31.0657068142361 33.4288046875  C 29.502851152585 32.98446875  28.6845906153549 34.112193359375  28.4468675974151 34.531291015625  L 27.85551680652 37.641642578125  L 47.412332248264 43.729044921875  Z M 27.8511239149307 37.655505859375  L 27.853235882041 37.648751953125  L 27.8511239149307 37.655505859375  Z M 27.8447880135996 37.675412109375  L 27.8511239149307 37.655505859375  L 27.8447880135996 37.675412109375  Z " fill-rule="nonzero" fill="url(#LinearGradient121)" stroke="none" transform="matrix(1 0 0 1 1381 139 )" />
  </g>
</svg>