<?xml version="1.0" encoding="utf-8"?>
<svg version="1.1" xmlns:xlink="http://www.w3.org/1999/xlink" width="26px" height="24px" preserveAspectRatio="xMinYMid meet" viewBox="1546 -5  26 22" xmlns="http://www.w3.org/2000/svg">
  <path d="M 1.99999999948116 1  L 86.7040816326535 1  L 173 34.0282392026578  L 173 82.4069767421183  " stroke-width="2" stroke="#00daf0" fill="none" transform="matrix(1 0 0 1 1555 5 )" />
  <path d="M 3.50000000203183 -2.5  C 1.56700337762405 -2.5  0 -0.932996624407777  0 1  C 0 2.93299662440778  1.56700337762405 4.5  3.50000000203183 4.5  C 5.43299662643961 4.5  7.00000000203183 2.93299662440778  7.00000000203183 1  C 7.00000000203183 -0.932996624407777  5.43299662643961 -2.5  3.50000000203183 -2.5  Z M 173 77.4069767507167  C 171.067003375592 77.4069767507167  169.5 78.9739801263089  169.5 80.9069767507167  C 169.5 82.8399733751245  171.067003375592 84.4069767507167  173 84.4069767507167  C 174.932996624408 84.4069767507167  176.5 82.8399733751245  176.5 80.9069767507167  C 176.5 78.9739801263089  174.932996624408 77.4069767507167  173 77.4069767507167  Z " fill-rule="nonzero" fill="#00daf0" stroke="none" transform="matrix(1 0 0 1 1555 5 )" />
</svg>