<?xml version="1.0" encoding="utf-8"?>
<svg version="1.1" xmlns:xlink="http://www.w3.org/1999/xlink" width="1720px" height="400px" xmlns="http://www.w3.org/2000/svg">
  <defs>
    <mask fill="white" id="clip124">
      <path d="M 4.96442307692301 30.0990099009901  L 94.3240384615384 0.792079207920816  L 235.843880895011 1.18705847005489  L 661.923076923077 2.37623762376237  L 704.948076923077 33  L 860.499999986453 33  L 1019.36153846154 32.4752475247525  L 1064.04134615385 0.792079207920816  L 1629.98557692308 0.792079207920816  L 1719.34519230769 34.8514851485148  L 1719.34519230769 369.90099009901  L 1633.29519230769 399.207920792079  L 89.3596153846154 399.207920792079  L 0 367.524752475248  L 4.96442307692301 30.0990099009901  Z " fill-rule="evenodd" />
    </mask>
  </defs>
  <g transform="matrix(1 0 0 1 -8 -5 )">
    <path d="M 4.96442307692301 30.0990099009901  L 94.3240384615384 0.792079207920816  L 235.843880895011 1.18705847005489  L 661.923076923077 2.37623762376237  L 704.948076923077 33  L 860.499999986453 33  L 1019.36153846154 32.4752475247525  L 1064.04134615385 0.792079207920816  L 1629.98557692308 0.792079207920816  L 1719.34519230769 34.8514851485148  L 1719.34519230769 369.90099009901  L 1633.29519230769 399.207920792079  L 89.3596153846154 399.207920792079  L 0 367.524752475248  L 4.96442307692301 30.0990099009901  Z " fill-rule="nonzero" fill="#ffffff" stroke="none" fill-opacity="0" transform="matrix(1 0 0 1 8 5 )" />
    <path d="M 4.96442307692301 30.0990099009901  L 94.3240384615384 0.792079207920816  L 235.843880895011 1.18705847005489  L 661.923076923077 2.37623762376237  L 704.948076923077 33  L 860.499999986453 33  L 1019.36153846154 32.4752475247525  L 1064.04134615385 0.792079207920816  L 1629.98557692308 0.792079207920816  L 1719.34519230769 34.8514851485148  L 1719.34519230769 369.90099009901  L 1633.29519230769 399.207920792079  L 89.3596153846154 399.207920792079  L 0 367.524752475248  L 4.96442307692301 30.0990099009901  Z " stroke-width="2" stroke="#2b865b" fill="none" transform="matrix(1 0 0 1 8 5 )" mask="url(#clip124)" />
  </g>
</svg>