<?xml version="1.0" encoding="utf-8"?>
<svg version="1.1" xmlns:xlink="http://www.w3.org/1999/xlink" width="192px" height="92px" xmlns="http://www.w3.org/2000/svg">
  <g transform="matrix(1 0 0 1 -1547 -321 )">
    <path d="M 1.99996711809473 71.4953808830438  L 86 71.013698630137  L 170.44578313253 42.4109589041096  L 171.926755990806 1.9986584426734  " stroke-width="2" stroke="#00daf0" fill="none" transform="matrix(1 0 0 1 1557 331 )" />
    <path d="M 3.49994245888816 67.9867795590124  C 1.56694583448039 67.9867795590124  -5.75411118366453E-05 69.5537829346047  -5.75411118366453E-05 71.4867795590124  C -5.75411118366453E-05 73.4197761834202  1.56694583448039 74.9867795590124  3.49994245888816 74.9867795590124  C 5.43293908329594 74.9867795590124  6.99994245888816 73.4197761834202  6.99994245888816 71.4867795590124  C 6.99994245888816 69.5537829346047  5.43293908329594 67.9867795590124  3.49994245888816 67.9867795590124  Z M 171.871822987993 -0.00234783673040795  C 169.938826363585 -0.00234783673040795  168.371822987993 1.56465553886181  168.371822987993 3.49765216326959  C 168.371822987993 5.43064878767737  169.938826363585 6.99765216326959  171.871822987993 6.99765216326959  C 173.8048196124 6.99765216326959  175.371822987993 5.43064878767737  175.371822987993 3.49765216326959  C 175.371822987993 1.56465553886181  173.8048196124 -0.00234783673040795  171.871822987993 -0.00234783673040795  Z " fill-rule="nonzero" fill="#00daf0" stroke="none" transform="matrix(1 0 0 1 1557 331 )" />
  </g>
</svg>