<?xml version="1.0" encoding="utf-8"?>
<svg version="1.1" xmlns:xlink="http://www.w3.org/1999/xlink" width="242px" height="106px" xmlns="http://www.w3.org/2000/svg">
  <g transform="matrix(1 0 0 1 -2 5 )">
    <path d="M 0.550525162091719 84.0003355299204  L 1.54166666666674 29.9022988505747  L 91.4722222222222 0.494252873563214  L 220.000057343579 1.46761276558161  " stroke-width="2" stroke="#00daf0" fill="none" transform="matrix(1 0 0 1 12 5 )" />
    <path d="M 0.57800236536892 79.0005872660505  C -1.35499425903886 79.0005872660505  -2.92199763463108 80.5675906416427  -2.92199763463108 82.5005872660505  C -2.92199763463108 84.4335838904582  -1.35499425903886 86.0005872660505  0.57800236536892 86.0005872660505  C 2.5109989897767 86.0005872660505  4.07800236536892 84.4335838904582  4.07800236536892 82.5005872660505  C 4.07800236536892 80.5675906416427  2.5109989897767 79.0005872660505  0.57800236536892 79.0005872660505  Z M 218.500097789925 -2.04374664514679  C 216.567101165517 -2.04374664514679  215.000097789925 -0.476743269554571  215.000097789925 1.45625335485321  C 215.000097789925 3.38924997926098  216.567101165517 4.95625335485321  218.500097789925 4.95625335485321  C 220.433094414333 4.95625335485321  222.000097789925 3.38924997926098  222.000097789925 1.45625335485321  C 222.000097789925 -0.476743269554571  220.433094414333 -2.04374664514679  218.500097789925 -2.04374664514679  Z " fill-rule="nonzero" fill="#00daf0" stroke="none" transform="matrix(1 0 0 1 12 5 )" />
  </g>
</svg>