<?xml version="1.0" encoding="utf-8"?>
<svg version="1.1" xmlns:xlink="http://www.w3.org/1999/xlink" width="238px" height="91px" xmlns="http://www.w3.org/2000/svg">
  <g transform="matrix(1 0 0 1 2 -323 )">
    <path d="M 0 2.00000000111558  L 0 38.6555541961706  L 86.8915094339623 69.0277777777778  L 216.000086542093 70.2416141383789  " stroke-width="2" stroke="#00daf0" fill="none" transform="matrix(1 0 0 1 8 333 )" />
    <path d="M 0 0  C -1.93299662440778 0  -3.5 1.56700406600344  -3.5 3.50000069041121  C -3.5 5.43299731481899  -1.93299662440778 7.00000069041121  0 7.00000069041121  C 1.93299662440778 7.00000069041121  3.5 5.43299731481899  3.5 3.50000069041121  C 3.5 1.56700406600344  1.93299662440778 0  0 0  Z M 214.500154677718 66.7275122725216  C 212.56715805331 66.7275122725216  211.000154677718 68.2945156481139  211.000154677718 70.2275122725216  C 211.000154677718 72.1605088969294  212.56715805331 73.7275122725216  214.500154677718 73.7275122725216  C 216.433151302126 73.7275122725216  218.000154677718 72.1605088969294  218.000154677718 70.2275122725216  C 218.000154677718 68.2945156481139  216.433151302126 66.7275122725216  214.500154677718 66.7275122725216  Z " fill-rule="nonzero" fill="#00daf0" stroke="none" transform="matrix(1 0 0 1 8 333 )" />
  </g>
</svg>