<?xml version="1.0" encoding="utf-8"?>
<svg version="1.1" xmlns:xlink="http://www.w3.org/1999/xlink" width="46px" height="50px" xmlns="http://www.w3.org/2000/svg">
  <g transform="matrix(1 0 0 1 -571 -64 )">
    <path d="M 32.1383928571429 43.9871651785714  C 34.9620535714286 42.3595610119048  37.2808779761905 40.1506696428571  39.0948660714286 37.3604910714286  C 38.7183779761905 34.477306547619  37.9696800595237 32.0824032738095  36.8487723214286 30.17578125  C 35.7278645833334 28.2691592261905  34.149181547619 27.1670386904762  32.1127232142857 26.8694196428571  C 30.9661458333334 28.2459077380952  29.6013764880952 29.3201264880952  28.0184151785714 30.0920758928571  C 26.4354538690477 30.8640252976191  24.7626488095237 31.25  23 31.25  C 21.2373511904763 31.25  19.5645461309523 30.8640252976191  17.9815848214286 30.0920758928571  C 16.3986235119048 29.3201264880952  15.0338541666666 28.2459077380952  13.8872767857143 26.8694196428571  C 11.850818452381 27.1670386904762  10.2721354166666 28.2691592261905  9.15122767857144 30.17578125  C 8.03031994047626 32.0824032738095  7.28162202380952 34.477306547619  6.90513392857144 37.3604910714286  C 8.71912202380952 40.1506696428571  11.0379464285714 42.3595610119048  13.8616071428571 43.9871651785714  C 16.6852678571429 45.6147693452381  19.7313988095237 46.4285714285714  23 46.4285714285714  C 26.2686011904763 46.4285714285714  29.3147321428571 45.6147693452381  32.1383928571429 43.9871651785714  Z M 29.9693080357143 25.4324776785714  C 31.89453125 23.33984375  32.8571428571429 20.8147321428571  32.8571428571429 17.8571428571429  C 32.8571428571429 14.8995535714286  31.89453125 12.3744419642857  29.9693080357143 10.2818080357143  C 28.0440848214286 8.18917410714286  25.7209821428571 7.14285714285714  23 7.14285714285714  C 20.2790178571429 7.14285714285714  17.9559151785714 8.18917410714286  16.0306919642857 10.2818080357143  C 14.10546875 12.3744419642857  13.1428571428571 14.8995535714286  13.1428571428571 17.8571428571429  C 13.1428571428571 20.8147321428571  14.10546875 23.33984375  16.0306919642857 25.4324776785714  C 17.9559151785714 27.5251116071429  20.2790178571429 28.5714285714286  23 28.5714285714286  C 25.7209821428571 28.5714285714286  28.0440848214286 27.5251116071429  29.9693080357143 25.4324776785714  Z M 44.1774553571429 15.2901785714286  C 45.3924851190477 18.3779761904762  46 21.6145833333333  46 25  C 46 28.3854166666667  45.3924851190477 31.6173735119048  44.1774553571429 34.6958705357143  C 42.9624255952381 37.7743675595238  41.3324032738095 40.434337797619  39.2873883928571 42.67578125  C 37.2423735119048 44.9172247023809  34.7994791666666 46.6982886904762  31.9587053571429 48.0189732142857  C 29.117931547619 49.3396577380952  26.1316964285714 50  23 50  C 19.8854166666666 50  16.9077380952381 49.3396577380952  14.0669642857143 48.0189732142857  C 11.2261904761905 46.6982886904762  8.77901785714289 44.921875  6.72544642857144 42.6897321428571  C 4.671875 40.4575892857143  3.03757440476193 37.797619047619  1.82254464285711 34.7098214285714  C 0.607514880952294 31.6220238095238  0 28.3854166666667  0 25  C 0 21.6145833333333  0.607514880952294 18.3779761904762  1.82254464285711 15.2901785714286  C 3.03757440476193 12.2023809523809  4.671875 9.54241071428572  6.72544642857144 7.31026785714286  C 8.77901785714289 5.078125  11.2261904761905 3.30171130952381  14.0669642857143 1.98102678571429  C 16.9077380952381 0.660342261904759  19.8854166666666 0  23 0  C 26.1145833333334 0  29.0922619047619 0.660342261904759  31.9330357142857 1.98102678571429  C 34.7738095238095 3.30171130952381  37.2209821428571 5.078125  39.2745535714286 7.31026785714286  C 41.328125 9.54241071428572  42.9624255952381 12.2023809523809  44.1774553571429 15.2901785714286  Z " fill-rule="nonzero" fill="#ffffff" stroke="none" transform="matrix(1 0 0 1 571 64 )" />
  </g>
</svg>