<?xml version="1.0" encoding="utf-8"?>
<svg version="1.1" xmlns:xlink="http://www.w3.org/1999/xlink" width="14px" height="9px" xmlns="http://www.w3.org/2000/svg">
  <g transform="matrix(1 0 0 1 -954 -79 )">
    <path d="M 1.4024889046874 2.20733331640625  L 12.2577777619791 2.20733331640625  C 12.7047105691701 2.20733334179687  13.0668624674912 1.81931345073838  13.0668624674912 1.34066665820312  C 13.0668624674912 0.862019865667861  12.7047105691701 0.47399997460937  12.2579735628038 0.47399997460937  L 1.4024889046874 0.47399999999999  C 0.955556097496696 0.47399997460937  0.593404199175325 0.862019865667861  0.593404199175325 1.34066665820312  C 0.593404199175325 1.81931345073838  0.955556097496696 2.20733334179687  1.40229310386292 2.20733334179687  Z M 0.593795800824523 7.22533334179687  C 0.593795800824523 7.70389820962225  0.955828374469547 8.09188415789214  1.4024889046874 8  L 12.2577777619791 8  C 12.7044382921971 8.09188415789214  13.0664708658421 7.70389820962225  13.0664708658421 7.22533334179687  C 13.0664708658421 6.74676847397149  12.7044382921971 6.3587825257016  12.2577777619791 6.35866668359375  L 1.4024889046874 6.35866668359375  C 0.955828374469547 6.3587825257016  0.593795800824523 6.74676847397149  0.593795800824523 7.22533334179687  Z " fill-rule="nonzero" fill="#ffffff" stroke="none" transform="matrix(1 0 0 1 954 79 )" />
  </g>
</svg>