<?xml version="1.0" encoding="utf-8"?>
<svg version="1.1" xmlns:xlink="http://www.w3.org/1999/xlink" width="42px" height="39px" xmlns="http://www.w3.org/2000/svg">
  <g transform="matrix(1 0 0 1 -946 -66 )">
    <path d="M 38.3660869565217 16.6893333164062  L 40.8349565217392 12.0093333164062  C 41.9719324964767 9.84874113584576  41.5055058813642 7.10339150869781  39.7350434628057 5.53533331640625  C 39.86089941023 5.12516182936002  39.9250812690718 4.69532169941678  39.9250812690718 4.26260801966772  C 39.9250812690718 2.05604635852566  38.291854975135 0.267274703261478  36.2771682410487 0.267274703261478  C 34.9694812574562 0.267274703261478  33.761831823136 1.03390306708312  33.1118260715012 2.27666668359375  L 32.5737391304348 3.29933331640625  C 32.2139517728801 3.14665492788873  31.806078398364 3.3004432518896  31.6083478415421 3.66333331640625  L 30.1206956367188 7  L 2.96313041932751 7  C 1.78805560494118 6.4894896997983  0.838825991077442 7.53298694619478  1 8.81999999999999  L 1 31.6306666835937  C 0.83451366715758 32.9196359995278  1.78625346368062 33.9658927138704  2.96313041932751 34  L 13.9068695497622 34  L 13.9068695497622 37.6973333164062  C 13.904104645266 38.006412160861  14.0518457131516 38.2937103776302  14.2946086956522 38.4513333164062  C 14.4175318334777 38.5276820357032  14.556880001793 38.5665850315819  14.6981739130435 38.564  C 14.8341107125552 38.5635444150179  14.9676481284044 38.5247419934959  15.0859130589333 38.4513333164062  L 22.3500869719768 34  L 33.8635652328466 34  C 35.0435336070502 33.9706666835937  36.0000869719768 32.9230129981978  36 31.6306666835937  L 36 14.2453333164062  L 39.0782608695652 8.38666668359375  C 39.2627171678496 8.01826880051929  39.179339792069 7.55802572216578  38.8804347671536 7.29466668359375  L 38.9674782763246 7.12133331640625  C 39.9443547005714 8.18572687341172  40.1426719764524 9.83790651552876  39.4501738975883 11.1426666835937  L 36.9892173913042 15.814  C 36.7578381688734 16.2528016560055  36.6360239194252 16.7505911209844  36.6360239194252 17.2573121756871  C 36.6360239194252 18.2888609170678  37.138724397998 19.2419750901345  37.954608680197 19.7573333164062  C 38.0818856933108 19.8464604211828  38.229797204231 19.8938221783673  38.380865537978 19.8938221783673  C 38.6724839349469 19.8938221783673  38.9404674148435 19.7181540676209  39.0782608695652 19.4366666835937  C 39.2825597951399 19.0153396538805  39.1375515355692 18.4924004350462  38.7538261024116 18.2666666835937  C 38.2553936043124 17.9430670231467  38.0833703644537 17.2432718153709  38.3660869565217 16.6893333164062  Z M 34 17.2873333164063  L 34 31.6306666835937  C 34.4174782198074 31.9657194015104  34.1694829318138 32.2373332883605  33.8635652328466 32  L 22.136434798064 32  C 22.000497998552 32.2377889013884  21.8669605827029 32.2765913229104  21.748695652174 32.35  L 15.4894782763247 36.2153333164063  L 15.4894782763247 33.104  C 15.4894782763247 32.6253532074647  15.1351992453583 32.2373333164063  14.6981739130435 32  L 2.96313041932751 32  C 2.66030739145549 32.2325947780831  2.41709953954205 31.9623638465925  3 31.6306666835937  L 3 8.81999999999999  C 2.41709951418977 8.48830281722864  2.66030737340145 8.21807185500904  2.96313041932751 8.21333331640625  L 29.2027826086955 8.21333331640625  L 22.9831304347825 20  C 22.877917752307 20.199327517331  22.8494466821297 20.4363152422292  22.9039999845447 20.6586666835938  L 24.0434782454145 25  L 8.67634784154211 25  C 8.67634784154211 25.2433333164063  8.67634784154211 25.2433333164063  8.67634784154211 25.2433333164063  C 8.23932250922724 25.2433333164063  7.88504347826085 25.6313532074647  7.88504347826085 26.11  C 7.88504347826085 26.5886467925353  8.23932250922724 26.9766666835937  8.67634784154211 26.9766666835937  C 8.67634784154211 26.9766666835937  8.67634784154211 26.9766666835937  8.67634784154211 27  L 25.0405217236753 27  C 25.1295454063437 26.9934868798371  25.2205415347227 26.9934868798371  25.3095652173913 26.9766666835937  L 30.0573913043478 25.1826666835937  C 30.2369501834005 25.1157511115218  30.3885910040195 24.9804243707012  30.484695652174 24.8013333164063  L 34 17.2873333164063  Z M 25.5944347826087 24.992  L 24.9218260715014 22.2533333164062  L 27.8813043632812 24.1253333164063  L 25.5944347826087 24.992  Z M 37.3294782763248 8.26533331640624  L 34.5124347671535 13.5866666835937  L 34.5124347671535 13.656  L 29.4876521739131 23.1373333164063  L 24.7398260869564 20.1386666835938  L 32.5816521893681 5.26666668359375  L 37.3294782763248 8.26533331640624  Z M 38.0258260715013 5.40533331640626  L 38.0574782608695 5.39666668359375  L 37.4956521893682 6.402  L 33.9268695652174 4.14866668359375  L 34.4491304347827 3.14333331640626  C 34.8139322258814 2.4272715624474  35.5039906414856 1.9835083004625  36.2526754360075 1.9835083004625  C 37.3933115310713 1.9835083004625  38.3179797838336 2.99624019634524  38.3179797838336 4.2455083004625  C 38.3179797838336 4.65391362464011  38.2170237984868 5.05470017080384  38.0258260715013 5.40533331640626  Z " fill-rule="nonzero" fill="#ffffff" stroke="none" transform="matrix(1 0 0 1 946 66 )" />
  </g>
</svg>