<?xml version="1.0" encoding="utf-8"?>
<svg version="1.1" xmlns:xlink="http://www.w3.org/1999/xlink" width="15px" height="20px" xmlns="http://www.w3.org/2000/svg">
  <g transform="matrix(1 0 0 1 -1647 -198 )">
    <path d="M 13.265625 19.75  C 11.390625 19.6022727272727  9.375 19.6022727272727  7.40625 19.6022727272727  L 1.546875 19.6022727272727  C 1.03125 19.6022727272727  0.609375 19.3806818181818  0.28125 18.8636363636363  C 0.140625 18.6420454545454  0.09375 18.3465909090909  0 18.0511363636364  L 0 4.01704545454544  C 0.09375 3.20454545454547  0.65625 2.53977272727272  1.3125 2.46590909090907  L 2.53125 2.46590909090907  C 2.71875 2.46590909090907  2.8125 2.39204545454544  2.8125 2.17045454545453  L 2.8125 1.57954545454547  C 2.90625 0.988636363636374  3.1875 0.693181818181813  3.65625 0.693181818181813  C 4.03125 0.693181818181813  4.3125 1.06250000000003  4.359375 1.65340909090909  L 4.359375 1.72727272727272  C 4.40625 2.53977272727272  4.40625 2.53977272727272  5.015625 2.53977272727272  L 10.125 2.53977272727272  C 10.359375 2.53977272727272  10.453125 2.46590909090907  10.453125 2.17045454545453  L 10.453125 1.65340909090909  C 10.5 1.06250000000003  10.828125 0.767045454545439  11.25 0.767045454545439  C 11.671875 0.767045454545439  11.953125 1.13636363636365  12 1.65340909090909  C 12 1.94886363636363  11.90625 2.31818181818181  12.046875 2.46590909090907  C 12.234375 2.61363636363635  12.515625 2.53977272727272  12.75 2.53977272727272  L 13.453125 2.53977272727272  C 14.15625 2.61363636363635  14.71875 3.27840909090909  14.71875 4.16477272727272  L 14.71875 18.0511363636364  C 14.71875 19.0113636363636  14.109375 19.6761363636364  13.265625 19.75  Z M 13.3125 6.97159090909093  L 7.453125 6.97159090909088  L 1.59375 6.97159090909088  C 1.359375 6.97159090909088  1.265625 7.04545454545453  1.265625 7.34090909090909  L 1.265625 17.5340909090909  C 1.265625 17.9772727272727  1.40625 18.0511363636364  1.6875 18  L 13.21875 18  C 13.640625 18.0511363636364  13.640625 18.0511363636364  13.640625 17.5340909090909  L 13.640625 7.41477272727275  C 13.640625 7.04545454545456  13.59375 6.97159090909093  13.3125 6.97159090909093  Z " fill-rule="nonzero" fill="#58c1be" stroke="none" transform="matrix(1 0 0 1 1647 198 )" />
  </g>
</svg>