<?xml version="1.0" encoding="utf-8"?>
<svg version="1.1" xmlns:xlink="http://www.w3.org/1999/xlink" width="10px" height="8px" xmlns="http://www.w3.org/2000/svg">
  <g transform="matrix(1 0 0 1 -1649 -208 )">
    <path d="M 2.20138888888891 7.41874999999999  L 1.43402777777783 7.41874999999999  L 0.711805555555429 7.41874999999999  C 0.395833333333258 7.41874999999999  0.260416666666515 7.17500000000001  0.215277777777828 6.76875000000001  L 0.215277777777828 5.38749999999999  C 0.215277777777828 4.98124999999999  0.395833333333258 4.73750000000001  0.666666666666742 4.73750000000001  L 2.20138888888891 4.73750000000001  C 2.51736111111109 4.73750000000001  2.65277777777783 4.98124999999999  2.65277777777783 5.46875  L 2.65277777777783 6.76875000000001  C 2.65277777777783 7.17500000000001  2.51736111111109 7.41874999999999  2.20138888888891 7.41874999999999  Z M 5.67708333333348 7.41874999999999  L 4.95486111111109 7.41874999999999  L 4.23263888888891 7.41874999999999  C 3.91666666666674 7.41874999999999  3.73611111111109 7.17500000000001  3.73611111111109 6.76875000000001  L 3.73611111111109 5.46875  C 3.73611111111109 4.98124999999999  3.87152777777783 4.81874999999999  4.1875 4.73750000000001  L 5.67708333333348 4.73750000000001  C 5.94791666666674 4.73750000000001  6.12847222222217 4.98124999999999  6.12847222222217 5.38749999999999  L 6.12847222222217 6.76875000000001  C 6.12847222222217 7.17500000000001  5.94791666666674 7.41874999999999  5.67708333333348 7.41874999999999  Z M 7.66319444444457 4.81874999999999  C 7.93402777777783 4.65625  8.20486111111109 4.73750000000001  8.47569444444457 4.73750000000001  L 9.24305555555566 4.73750000000001  C 9.51388888888891 4.73750000000001  9.69444444444457 4.98124999999999  9.64930555555543 5.38749999999999  L 9.64930555555543 6.84999999999999  C 9.64930555555543 7.25624999999999  9.46875 7.5  9.19791666666674 7.5  L 7.66319444444457 7.5  C 7.39236111111109 7.5  7.21180555555566 7.25624999999999  7.21180555555566 6.84999999999999  L 7.21180555555566 5.46875  C 7.21180555555566 5.0625  7.39236111111109 4.81874999999999  7.66319444444457 4.81874999999999  Z M 5.72222222222217 2.78749999999999  L 4.95486111111109 2.78749999999999  L 4.1875 2.78749999999999  C 3.87152777777783 2.78749999999999  3.73611111111109 2.625  3.73611111111109 2.13749999999999  L 3.73611111111109 0.675000000000011  C 3.73611111111109 0.268750000000011  3.87152777777783 0.106249999999989  4.14236111111109 0.106249999999989  L 5.72222222222217 0.106249999999989  C 5.99305555555566 0.106249999999989  6.12847222222217 0.349999999999994  6.17361111111109 0.756249999999994  L 6.17361111111109 2.13749999999999  C 6.17361111111109 2.54374999999999  6.03819444444434 2.78749999999999  5.72222222222217 2.78749999999999  Z M 0.711805555555429 0.0250000000000057  C 0.9375 0.106249999999989  1.16319444444457 0.106249999999989  1.43402777777783 0.106249999999989  L 2.20138888888891 0.106249999999989  C 2.47222222222217 0.106249999999989  2.65277777777783 0.349999999999994  2.65277777777783 0.675000000000011  L 2.65277777777783 2.13749999999999  C 2.65277777777783 2.54374999999999  2.51736111111109 2.70625000000001  2.24652777777783 2.70625000000001  L 0.666666666666742 2.70625000000001  C 0.395833333333258 2.70625000000001  0.260416666666515 2.54374999999999  0.260416666666515 2.13749999999999  L 0.260416666666515 0.59375  C 0.260416666666515 0.1875  0.440972222222172 0.0250000000000057  0.711805555555429 0.0250000000000057  Z M 9.19791666666674 2.70625000000001  C 8.9722222222224 2.78749999999999  8.70138888888891 2.78749999999999  8.43055555555543 2.78749999999999  L 7.66319444444457 2.78749999999999  C 7.39236111111109 2.78749999999999  7.21180555555566 2.54374999999999  7.21180555555566 2.13749999999999  L 7.21180555555566 0.675000000000011  C 7.21180555555566 0.268750000000011  7.34722222222217 0.106249999999989  7.61805555555543 0.106249999999989  L 9.19791666666674 0.106249999999989  C 9.46875 0.106249999999989  9.60416666666674 0.349999999999994  9.60416666666674 0.675000000000011  L 9.60416666666674 2.13749999999999  C 9.60416666666674 2.46250000000001  9.46875 2.70625000000001  9.19791666666674 2.70625000000001  Z " fill-rule="nonzero" fill="#58c1be" stroke="none" transform="matrix(1 0 0 1 1649 208 )" />
  </g>
</svg>