<?xml version="1.0" encoding="utf-8"?>
<svg version="1.1" xmlns:xlink="http://www.w3.org/1999/xlink" width="28px" height="28px" xmlns="http://www.w3.org/2000/svg">
  <g transform="matrix(1 0 0 1 -1518 -402 )">
    <path d="M 24.8689280000001 11.33078  L 26.632928 11.33078  C 27.0966976684208 11.3305535760649  27.4725452316588 10.9276762183349  27.4725452316588 10.4307800934384  C 27.4725452316588 10.1335357148278  27.3355646571852 9.8554618279677  27.1065199999998 9.68774000000008  L 14.4737599999999 0.443839999999909  C 14.1880299692684 0.234870963328149  13.8119700307316 0.234870963328149  13.5262400000001 0.443839999999909  L 0.893312000000151 9.68756000000008  C 0.66426734281481 9.8552818279677  0.527286768341128 10.1333557148278  0.527286768341128 10.4306000934384  C 0.527286768341128 10.9274962183349  0.90313433157894 11.3303735760649  1.36690399999998 11.3306  L 3.16433600000005 11.3306  L 3.16433600000005 26.0621599999999  L 1.36707200000001 26.0621599999999  C 0.941658102900192 26.0621599999999  0.596791999999823 26.4316593959647  0.596791999999823 26.8874599999999  C 0.596791999999823 27.3432606040353  0.941658102900192 27.7127599999999  1.36707200000001 27.7127599999999  L 26.633096 27.7127599999999  C 27.0585098970998 27.7127599999999  27.4033760000002 27.3432606040353  27.4033760000002 26.8874599999999  C 27.4033760000002 26.4316593959647  27.0585098970998 26.0621599999999  26.633096 26.0621599999999  L 24.8689280000001 26.0621599999999  L 24.8689280000001 11.33078  Z M 4.08648799999992 10  L 14 2.27677999999992  L 23.9135120000001 10  L 4.08648799999992 10  Z M 10 11.33078  L 10 26.0623399999999  L 4.70506399999999 26.0623399999999  L 4.70506399999999 11.33078  L 10 11.33078  Z M 16.6070239999999 26.0623399999999  L 11.4262400000002 26.0623399999999  L 11.4262400000002 11.33078  L 16.6068559999999 11.33078  L 16.6068559999999 26.0623399999999  Z M 23.3282000000002 11.33078  L 23.3282000000002 26.0623399999999  L 18 26.0623399999999  L 18 11.33078  L 23.3282000000002 11.33078  Z " fill-rule="nonzero" fill="#33ff99" stroke="none" transform="matrix(1 0 0 1 1518 402 )" />
  </g>
</svg>