<?xml version="1.0" encoding="utf-8"?>
<svg version="1.1" xmlns:xlink="http://www.w3.org/1999/xlink" width="17px" height="21px" xmlns="http://www.w3.org/2000/svg">
  <g transform="matrix(1 0 0 1 -414 -65 )">
    <path d="M 1.28901098901105 16.125  L 1.28901098901105 19.5  L 4.18928571428569 19.5  L 4.18928571428569 16.125  L 1.28901098901105 16.125  Z M 4.83379120879118 16.125  L 4.83379120879118 19.5  L 8.05631868131877 19.5  L 8.05631868131877 16.125  L 4.83379120879118 16.125  Z M 1.28901098901105 11.625  L 1.28901098901105 15.375  L 4.18928571428569 15.375  L 4.18928571428569 11.625  L 1.28901098901105 11.625  Z M 4.83379120879118 11.625  L 4.83379120879118 15.375  L 8.05631868131877 15.375  L 8.05631868131877 11.625  L 4.83379120879118 11.625  Z M 1.28901098901105 7.49999999999997  L 1.28901098901105 10.875  L 4.18928571428569 10.875  L 4.18928571428569 7.49999999999997  L 1.28901098901105 7.49999999999997  Z M 8.70082417582415 16.125  L 8.70082417582415 19.5  L 11.9233516483516 19.5  L 11.9233516483516 16.125  L 8.70082417582415 16.125  Z M 4.83379120879118 7.49999999999997  L 4.83379120879118 10.875  L 8.05631868131877 10.875  L 8.05631868131877 7.49999999999997  L 4.83379120879118 7.49999999999997  Z M 12.5678571428572 16.125  L 12.5678571428572 19.5  L 15.4681318681319 19.5  L 15.4681318681319 16.125  L 12.5678571428572 16.125  Z M 8.70082417582415 11.625  L 8.70082417582415 15.375  L 11.9233516483516 15.375  L 11.9233516483516 11.625  L 8.70082417582415 11.625  Z M 5.0603751717033 5.51367187500003  C 5.12415436126366 5.43945312499999  5.1560439560439 5.35156250000003  5.1560439560439 5.25  L 5.1560439560439 1.87500000000001  C 5.1560439560439 1.77343749999997  5.12415436126366 1.68554687500003  5.0603751717033 1.61132812499999  C 4.99659598214282 1.53710937500003  4.92106799450556 1.49999999999997  4.83379120879118 1.49999999999997  L 4.18928571428569 1.49999999999997  C 4.10200892857142 1.49999999999997  4.02648094093411 1.53710937500003  3.96270175137363 1.61132812499999  C 3.89892256181321 1.68554687500003  3.86703296703297 1.77343749999997  3.86703296703297 1.87500000000001  L 3.86703296703297 5.25  C 3.86703296703297 5.35156250000003  3.89892256181321 5.43945312499999  3.96270175137363 5.51367187500003  C 4.02648094093411 5.58789062499997  4.10200892857142 5.62500000000003  4.18928571428569 5.62500000000003  L 4.83379120879118 5.62500000000003  C 4.92106799450556 5.62500000000003  4.99659598214282 5.58789062499997  5.0603751717033 5.51367187500003  Z M 12.5678571428572 11.625  L 12.5678571428572 15.375  L 15.4681318681319 15.375  L 15.4681318681319 11.625  L 12.5678571428572 11.625  Z M 8.70082417582415 7.49999999999997  L 8.70082417582415 10.875  L 11.9233516483516 10.875  L 11.9233516483516 7.49999999999997  L 8.70082417582415 7.49999999999997  Z M 12.5678571428572 7.49999999999997  L 12.5678571428572 10.875  L 15.4681318681319 10.875  L 15.4681318681319 7.49999999999997  L 12.5678571428572 7.49999999999997  Z M 12.7944411057692 5.51367187500003  C 12.8582202953297 5.43945312499999  12.89010989011 5.35156250000003  12.89010989011 5.25  L 12.89010989011 1.87500000000001  C 12.89010989011 1.77343749999997  12.8582202953297 1.68554687500003  12.7944411057692 1.61132812499999  C 12.7306619162088 1.53710937500003  12.6551339285714 1.49999999999997  12.5678571428572 1.49999999999997  L 11.9233516483516 1.49999999999997  C 11.8360748626374 1.49999999999997  11.760546875 1.53710937500003  11.6967676854395 1.61132812499999  C 11.6329884958791 1.68554687500003  11.6010989010989 1.77343749999997  11.6010989010989 1.87500000000001  L 11.6010989010989 5.25  C 11.6010989010989 5.35156250000003  11.6329884958791 5.43945312499999  11.6967676854395 5.51367187500003  C 11.760546875 5.58789062499997  11.8360748626374 5.62500000000003  11.9233516483516 5.62500000000003  L 12.5678571428572 5.62500000000003  C 12.6551339285714 5.62500000000003  12.7306619162088 5.58789062499997  12.7944411057692 5.51367187500003  Z M 16.3744677197802 3.4453125  C 16.629584478022 3.74218749999997  16.7571428571429 4.09375000000003  16.7571428571429 4.50000000000001  L 16.7571428571429 19.5  C 16.7571428571429 19.90625  16.629584478022 20.2578125  16.3744677197802 20.5546875  C 16.1193509615385 20.8515625  15.8172390109891 21  15.4681318681319 21  L 1.28901098901105 21  C 0.939903846153868 21  0.637791895604323 20.8515625  0.382675137362639 20.5546875  C 0.127558379120899 20.2578125  0 19.90625  0 19.5  L 0 4.50000000000001  C 0 4.09375000000003  0.127558379120899 3.74218749999997  0.382675137362639 3.4453125  C 0.637791895604323 3.14843750000003  0.939903846153868 3.00000000000003  1.28901098901105 3.00000000000003  L 2.57802197802198 3.00000000000003  L 2.57802197802198 1.87500000000001  C 2.57802197802198 1.35937500000003  2.73579155219784 0.917968750000014  3.05133070054944 0.550781250000028  C 3.3668698489011 0.183593750000028  3.74618818681324 0  4.18928571428569 0  L 4.83379120879118 0  C 5.2768887362638 0  5.65620707417588 0.183593750000028  5.97174622252749 0.550781250000028  C 6.28728537087915 0.917968750000014  6.44505494505495 1.35937500000003  6.44505494505495 1.87500000000001  L 6.44505494505495 3.00000000000003  L 10.3120879120879 3.00000000000003  L 10.3120879120879 1.87500000000001  C 10.3120879120879 1.35937500000003  10.4698574862637 0.917968750000014  10.7853966346154 0.550781250000028  C 11.100935782967 0.183593750000028  11.4802541208791 0  11.9233516483516 0  L 12.5678571428572 0  C 13.0109546703297 0  13.3902730082417 0.183593750000028  13.7058121565935 0.550781250000028  C 14.0213513049451 0.917968750000014  14.1791208791209 1.35937500000003  14.1791208791209 1.87500000000001  L 14.1791208791209 3.00000000000003  L 15.4681318681319 3.00000000000003  C 15.8172390109891 3.00000000000003  16.1193509615385 3.14843750000003  16.3744677197802 3.4453125  Z " fill-rule="nonzero" fill="#cccccc" stroke="none" transform="matrix(1 0 0 1 414 65 )" />
  </g>
</svg>