<?xml version="1.0" encoding="utf-8"?>
<svg version="1.1" xmlns:xlink="http://www.w3.org/1999/xlink" width="12px" height="12px" xmlns="http://www.w3.org/2000/svg">
  <g transform="matrix(1 0 0 1 -295 -909 )">
    <path d="M 301 910  C 303.8 910  306 912.2  306 915  C 306 917.8  303.8 920  301 920  C 298.2 920  296 917.8  296 915  C 296 912.2  298.2 910  301 910  Z " fill-rule="nonzero" fill="#ffffff" stroke="none" />
    <path d="M 301 910  C 303.8 910  306 912.2  306 915  C 306 917.8  303.8 920  301 920  C 298.2 920  296 917.8  296 915  C 296 912.2  298.2 910  301 910  Z " stroke-width="2" stroke="#34c9fb" fill="none" />
  </g>
</svg>