<?xml version="1.0" encoding="utf-8"?>
<svg version="1.1" xmlns:xlink="http://www.w3.org/1999/xlink" width="30px" height="16px" xmlns="http://www.w3.org/2000/svg">
  <g transform="matrix(1 0 0 1 -1471 -987 )">
    <path d="M 28.8996562500001 15.1310781249999  C 28.7405156249999 15.2901093749999  28.524390625 15.3796875  28.2990781250001 15.3796875  L 1.15526562499986 15.3796875  C 0.929953125000111 15.3796875  0.713664062499902 15.29021875  0.554578125000035 15.1311328125  C 0.395492187500167 14.972046875  0.306843749999871 14.7549921875  0.306843749999871 14.5296796875  C 0.316031249999924 9.04539843750001  3.05899218750005 3.92068749999999  7.46543750000001 1.15530468750001  C 7.85978906250011 0.905109374999938  8.3850625 1.02607812500003  8.63438281250001 1.4237109375  C 8.88375781249988 1.81970312500005  8.76360937499999 2.3433359375  8.36679687500009 2.59347656249997  C 4.67692187500006 4.90817968750002  2.2993281250001 9.1033671875  2.02917187499997 13.6830078125  L 27.4250078125001 13.6830078125  C 27.1524453125 9.02718749999997  24.7143671874999 4.793828125  20.9284062500001 2.49575000000004  C 20.5282578125 2.25217187500004  20.4006718749999 1.73023437500001  20.6442500000001 1.32926562499995  C 20.8878281249999 0.93163281249997  21.4064296875001 0.802351562500007  21.8098593750001 1.04428906249996  C 26.3264999999999 3.78807031249994  29.1382578124999 8.95592968749997  29.1473906250001 14.5296796875  C 29.1473906250001 14.7549921875  29.0587968750001 14.972046875  28.8996562500001 15.1310781249999  Z " fill-rule="nonzero" fill="#3488f8" stroke="none" transform="matrix(1 0 0 1 1471 987 )" />
  </g>
</svg>