<?xml version="1.0" encoding="utf-8"?>
<svg version="1.1" xmlns:xlink="http://www.w3.org/1999/xlink" width="40px" height="40px" xmlns="http://www.w3.org/2000/svg">
  <defs>
    <filter x="1425px" y="149px" width="40px" height="40px" filterUnits="userSpaceOnUse" id="filter115">
      <feOffset dx="1" dy="1" in="SourceAlpha" result="shadowOffsetInner" />
      <feGaussianBlur stdDeviation="2.5" in="shadowOffsetInner" result="shadowGaussian" />
      <feComposite in2="shadowGaussian" operator="atop" in="SourceAlpha" result="shadowComposite" />
      <feColorMatrix type="matrix" values="0 0 0 0 0  0 0 0 0 0  0 0 0 0 0  0 0 0 0.698039215686274 0  " in="shadowComposite" />
    </filter>
    <g id="widget116">
      <path d="M 1444 153  C 1452.4 153  1459 159.6  1459 168  C 1459 176.4  1452.4 183  1444 183  C 1435.6 183  1429 176.4  1429 168  C 1429 159.6  1435.6 153  1444 153  Z " fill-rule="nonzero" fill="#ff3333" stroke="none" />
      <path d="M 1444 153.5  C 1452.12 153.5  1458.5 159.88  1458.5 168  C 1458.5 176.12  1452.12 182.5  1444 182.5  C 1435.88 182.5  1429.5 176.12  1429.5 168  C 1429.5 159.88  1435.88 153.5  1444 153.5  Z " stroke-width="1" stroke="#ffffff" fill="none" />
    </g>
  </defs>
  <g transform="matrix(1 0 0 1 -1425 -149 )">
    <use xlink:href="#widget116" filter="url(#filter115)" />
    <use xlink:href="#widget116" />
  </g>
</svg>