<?xml version="1.0" encoding="utf-8"?>
<svg version="1.1" xmlns:xlink="http://www.w3.org/1999/xlink" width="125px" height="50px" xmlns="http://www.w3.org/2000/svg">
  <defs>
    <mask fill="white" id="clip121">
      <path d="M 119 0.333333333333485  L 0.333333333333258 0.333333333333485  L 0.333333333333258 49.6666666666665  L 119 49.6666666666665  L 119 30.3333333333335  L 124.333333333333 26.3333333333335  L 119 19  L 119 0.333333333333485  Z " fill-rule="evenodd" />
    </mask>
  </defs>
  <g transform="matrix(1 0 0 1 -100 -192 )">
    <path d="M 119 0.333333333333485  L 0.333333333333258 0.333333333333485  L 0.333333333333258 49.6666666666665  L 119 49.6666666666665  L 119 30.3333333333335  L 124.333333333333 26.3333333333335  L 119 19  L 119 0.333333333333485  Z " fill-rule="nonzero" fill="#4b72cd" stroke="none" transform="matrix(1 0 0 1 100 192 )" />
    <path d="M 119 0.333333333333485  L 0.333333333333258 0.333333333333485  L 0.333333333333258 49.6666666666665  L 119 49.6666666666665  L 119 30.3333333333335  L 124.333333333333 26.3333333333335  L 119 19  L 119 0.333333333333485  Z " stroke-width="2" stroke="#3399ff" fill="none" transform="matrix(1 0 0 1 100 192 )" mask="url(#clip121)" />
  </g>
</svg>