<?xml version="1.0" encoding="utf-8"?>
<svg version="1.1" xmlns:xlink="http://www.w3.org/1999/xlink" width="49px" height="43px" xmlns="http://www.w3.org/2000/svg">
  <g transform="matrix(1 0 0 1 -34 -766 )">
    <path d="M 33.05859375 36.7291666666666  C 34.7903645833333 36.1319444444445  36.3125 35.8333333333334  37.625 35.8333333333334  L 38 35.8333333333334  L 38 17.9166666666666  L 37.625 17.9166666666666  C 36.9869791666667 17.9166666666666  36.3717447916667 17.8046875  35.779296875 17.5807291666666  C 35.1868489583333 17.3567708333334  34.6171875 17.0115017361111  34.0703125 16.544921875  C 33.5234375 16.0783420138889  33.0677083333333 15.6490885416666  32.703125 15.2571614583334  C 32.3385416666667 14.865234375  31.8919270833333 14.361328125  31.36328125 13.7454427083334  C 31.2174479166667 13.5774739583334  31.1080729166667 13.4468315972222  31.03515625 13.353515625  C 29.72265625 11.841796875  28.7018229166667 10.4887152777778  27.97265625 9.29427083333337  C 27.7174479166667 8.88368055555554  27.37109375 8.24913194444446  26.93359375 7.390625  C 26.9153645833333 7.33463541666663  26.8196614583333 7.12467447916663  26.646484375 6.7607421875  C 26.4733072916667 6.39680989583337  26.3046875 6.06087239583337  26.140625 5.7529296875  C 25.9765625 5.44498697916663  25.7942708333333 5.11371527777783  25.59375 4.75911458333337  C 25.3932291666667 4.40451388888891  25.197265625 4.11990017361109  25.005859375 3.9052734375  C 24.814453125 3.69064670138891  24.6458333333333 3.58333333333337  24.5 3.58333333333337  C 23.2057291666667 3.58333333333337  22.1529947916667 3.86794704861109  21.341796875 4.43717447916663  C 20.5305989583333 5.00640190972217  20.125 5.91623263888891  20.125 7.16666666666663  C 20.125 7.96918402777783  20.26171875 8.75770399305554  20.53515625 9.5322265625  C 20.80859375 10.3067491319445  21.109375 10.9412977430555  21.4375 11.4358723958334  C 21.765625 11.9304470486111  22.06640625 12.4436848958334  22.33984375 12.9755859375  C 22.61328125 13.5074869791666  22.75 13.9600694444445  22.75 15  L 7 15  C 6.08854166666667 14.3333333333334  5.27734375000001 14.6925998263889  4.56640625 15.4111328125  C 3.85546875 16.1296657986111  3.5 16.96484375  3.5 17.9166666666666  C 3.5 18.8871527777778  3.84635416666667 19.7269965277778  4.5390625 20.4361979166666  C 5.23177083333334 21.1453993055555  6.05208333333334 21.5  7 21.5  L 16.05078125 21.5  C 15.77734375 21.8172743055555  15.5494791666667 22.2605251736111  15.3671875 22.8297526041666  C 15.1848958333333 23.3989800347222  15.09375 23.9168836805555  15.09375 24.3834635416666  C 15.09375 25.6712239583334  15.5768229166667 26.7816840277778  16.54296875 27.71484375  C 16.21484375 28.3120659722222  16.05078125 28.9559461805555  16.05078125 29.646484375  C 16.05078125 30.3370225694445  16.2102864583333 31.0228949652778  16.529296875 31.7041015625  C 16.8483072916667 32.3853081597222  17.28125 32.8752170138889  17.828125 33.173828125  C 17.7552083333333 33.6217447916666  17.71875 34.1443142361111  17.71875 34.7415364583334  C 17.71875 36.3279079861111  18.1608072916667 37.5036892361111  19.044921875 38.2688802083334  C 19.9290364583333 39.0340711805555  21.1640625 39.4166666666666  22.75 39.4166666666666  C 24.28125 39.4166666666666  25.94921875 39.1180555555555  27.75390625 38.5208333333334  C 29.55859375 37.9236111111111  31.3268229166667 37.3263888888889  33.05859375 36.7291666666666  Z M 44.98046875 35.3014322916666  C 45.3268229166667 34.9468315972222  45.5 34.5269097222222  45.5 34.0416666666666  C 45.5 33.5564236111111  45.3268229166667 33.1365017361111  44.98046875 32.7819010416666  C 44.6341145833333 32.4273003472222  44.2239583333333 32.25  43.75 32.25  C 43.2760416666667 32.25  42.8658854166667 32.4273003472222  42.51953125 32.7819010416666  C 42.1731770833333 33.1365017361111  42 33.5564236111111  42 34.0416666666666  C 42 34.5269097222222  42.1731770833333 34.9468315972222  42.51953125 35.3014322916666  C 42.8658854166667 35.6560329861111  43.2760416666667 35.8333333333334  43.75 35.8333333333334  C 44.2239583333333 35.8333333333334  44.6341145833333 35.6560329861111  44.98046875 35.3014322916666  Z M 47.974609375 15.3831380208334  C 48.658203125 16.0830078125  49 16.9275173611111  49 17.9166666666666  L 49 35.8333333333334  C 49 36.8224826388889  48.658203125 37.6669921875  47.974609375 38.3668619791666  C 47.291015625 39.0667317708334  46.4661458333333 39.4166666666666  45.5 39.4166666666666  L 37.625 39.4166666666666  C 36.5494791666667 39.4166666666666  34.5169270833333 39.9672309027778  31.52734375 41.068359375  C 28.0638020833333 42.3561197916666  25.1744791666667 43  22.859375 43  C 20.2708333333333 43  18.1744791666667 42.2768012152778  16.5703125 40.8304036458334  C 14.9661458333333 39.3840060763889  14.1731770833333 37.3543836805555  14.19140625 34.7415364583334  L 14.21875 34.6015625  C 13.1067708333333 33.1831597222222  12.55078125 31.5221354166666  12.55078125 29.6184895833334  C 12.55078125 29.2078993055555  12.578125 28.806640625  12.6328125 28.4147135416666  C 12.03125 27.3509114583334  11.6940104166667 26.2404513888889  11.62109375 25.0833333333334  L 7 25.0833333333334  C 5.08593750000001 25.0833333333334  3.44075520833334 24.3741319444445  2.064453125 22.9557291666666  C 0.688151041666671 21.5373263888889  0 19.8483072916666  0 17.888671875  C 0 15.9663628472222  0.692708333333336 14.2960069444445  2.078125 12.8776041666666  C 3.46354166666667 11.4592013888889  5.10416666666666 10.75  7 11  L 17.2265625 11  C 16.8255208333333 9.63020833333337  16.625 8.43576388888891  16.625 7.16666666666663  C 16.625 4.88975694444446  17.3678385416667 3.12608506944446  18.853515625 1.87565104166663  C 20.3391927083333 0.625217013888914  22.2213541666667 0  24.5 0  C 25.1927083333333 0  25.826171875 0.163302951388914  26.400390625 0.489908854166629  C 26.974609375 0.816514756944457  27.4759114583333 1.27842881944446  27.904296875 1.87565104166663  C 28.3326822916667 2.47287326388891  28.7018229166667 3.06076388888891  29.01171875 3.63932291666663  C 29.3216145833333 4.21788194444446  29.6588541666667 4.88975694444446  30.0234375 5.65494791666663  C 30.3880208333333 6.42013888888891  30.6888020833333 6.99869791666663  30.92578125 7.390625  C 31.5638020833333 8.41710069444446  32.4752604166667 9.62087673611109  33.66015625 11.001953125  C 33.6966145833333 11.0579427083334  33.82421875 11.2165798611111  34.04296875 11.4778645833334  C 34.26171875 11.7391493055555  34.4348958333333 11.9397786458334  34.5625 12.0797526041666  C 34.6901041666667 12.2197265625  34.876953125 12.4203559027778  35.123046875 12.681640625  C 35.369140625 12.9429253472222  35.587890625 13.1528862847222  35.779296875 13.3115234375  C 35.970703125 13.4701605902778  36.17578125 13.6381293402778  36.39453125 13.8154296875  C 36.61328125 13.9927300347222  36.8274739583333 14.1233723958334  37.037109375 14.2073567708334  C 37.2467447916667 14.2913411458334  37.4427083333333 14.3333333333334  37.625 14.3333333333334  L 45.5 14.3333333333334  C 46.4661458333333 14.3333333333334  47.291015625 14.6832682291666  47.974609375 15.3831380208334  Z " fill-rule="nonzero" fill="#339966" stroke="none" transform="matrix(1 0 0 1 34 766 )" />
  </g>
</svg>