<?xml version="1.0" encoding="utf-8"?>
<svg version="1.1" xmlns:xlink="http://www.w3.org/1999/xlink" width="28px" height="26px" xmlns="http://www.w3.org/2000/svg">
  <g transform="matrix(1 0 0 1 -117 -180 )">
    <path d="M 21.4332222304687 21.9567777695312  L 21.4311111152344 21.9588888847656  L 21.3635555390625 18.5557777695313  C 21.3634253523563 18.5494443135243  21.3633602538475 18.5431096868868  21.3633602538475 18.5367748930014  C 21.3633602538475 18.0260956011562  21.7773476162992 17.6121082387045  22.2880269081444 17.6121082387045  C 22.2887957215615 17.6121082387045  22.2895645346777 17.6121091975485  22.2903333457031 17.6121111152344  C 22.8181111152344 17.6121111152344  23.2487778066406 18.028  23.2677777695313 18.5557777695313  L 23.3205555390625 20.0694444609375  L 25.3197777695313 20.0694444609375  C 25.8409504716233 20.0694444609375  26.2634444238282 20.4919384131424  26.2634444238282 21.0131111152344  C 26.2634444238282 21.5342838173264  25.8409504716233 21.9567777695312  25.3197777695313 21.9567777695312  L 21.4332222304687 21.9567777695312  Z M 7.66666665429688 23.5  L 9.60255553906251 23.5  C 10.1855227761336 23.5  10.6581110966797 23.9725883205461  10.6581110966797 24.5555555576172  C 10.6581110966797 25.1385227946883  10.1855227761336 25.6111111152344  9.60255553906251 25.6111111152344  L 7.66666665429688 25.6111111152344  C 3.58589600504655 25.6111111152344  0.277777769531241 22.3029928797191  0.277777769531241 18.2222222304688  L 0.277777769531241 7.66666665429688  C 0.277777769531241 3.58589600504655  3.58589600504655 0.277777769531241  7.66666665429688 0.277777769531241  L 20.3333333457031 0.277777769531241  C 24.4141039949535 0.277777769531241  27.7222222304687 3.58589600504655  27.7222222304687 7.66666665429688  L 27.7222222304687 10.8713333457031  C 27.7222222304687 11.4543005827742  27.2496339099227 11.9268889033203  26.6666666728516 11.9268889033203  C 26.0836994357805 11.9268889033203  25.6111111152344 11.4543005827742  25.6111111152344 10.8713333457031  L 25.6111111152344 7.66666665429688  C 25.6111111152344 4.75183047918878  23.2481695208112 2.38888888476563  20.3333333457031 2.38888888476563  L 7.66666665429688 2.38888888476563  C 4.75183047918878 2.38888888476563  2.38888888476562 4.75183047918878  2.38888888476562 7.66666665429688  L 2.38888888476562 18.2222222304687  C 2.38888888476562 21.1370584055769  4.75183047918878 23.5  7.66666665429688 23.5  Z " fill-rule="nonzero" fill="#ffffff" stroke="none" transform="matrix(1 0 0 1 117 180 )" />
  </g>
</svg>