<?xml version="1.0" encoding="utf-8"?>
<svg version="1.1" xmlns:xlink="http://www.w3.org/1999/xlink" width="21px" height="19px" xmlns="http://www.w3.org/2000/svg">
  <g transform="matrix(1 0 0 1 -424 -323 )">
    <path d="M 19.735078125 15.4770833333333  L 16.10642578125 15.4770833333333  L 17.0625 14.5722083333333  C 17.2056245300788 14.4332574902351  17.2056245300788 14.2088466764316  17.0625 14.0698958333334  C 16.9931877199567 14.0024532014776  16.8988369030743 13.9645176802866  16.80041015625 13.9645176802866  C 16.7019834094258 13.9645176802866  16.6076325925433 14.0024532014776  16.5383203125 14.0698958333334  L 14.9731640625 15.5803958333333  C 14.9032810722547 15.6472876845497  14.8639728841786 15.7383437110013  14.8639728841786 15.8333333333333  C 14.8639728841786 15.9283229556654  14.9032810722547 16.019378982117  14.9731640625 16.0862708333333  L 16.51986328125 17.6145833333333  C 16.5897473541452 17.6876898178508  16.6881179876399 17.7292719268837  16.791181640625 17.7292719268837  C 16.8942452936101 17.7292719268837  16.9926159271048 17.6876898178508  17.0625 17.6145833333333  C 17.2056245300788 17.4756324902351  17.2056245300788 17.2512216764316  17.0625 17.1122708333334  L 16.10642578125 16.1895833333333  L 19.735078125 16.1895833333333  C 19.9389488627305 16.1895833333333  20.10421875 16.0300847754606  20.10421875 15.8333333333333  C 20.10421875 15.6365818912061  19.9389488627305 15.4770833333333  19.735078125 15.4770833333333  Z M 16.32421875 0.15833333333336  C 17.139701700922 0.15833333333336  17.80078125 0.79632756482448  17.80078125 1.58333333333331  L 17.80078125 10.3114583333333  C 17.80078125 10.6065854646729  17.5528764190958 10.8458333014821  17.2470703125 10.8458333014821  C 16.941264218793 10.8458333014821  16.6933593932275 10.6065854840855  16.693359375 10.3114583333333  L 16.693359375 1.58333333333331  C 16.693359375 1.38658189120611  16.5280894877305 1.22708333333333  16.32421875 1.22708333333333  L 3.7734375 1.22708333333333  C 3.56956676226952 1.22708333333333  3.404296875 1.38658189120611  3.404296875 1.58333333333331  L 3.404296875 17.2583333333333  C 3.404296875 17.4550847754605  3.56956676226952 17.6145833333333  3.7734375 17.6145833333333  L 11.3408203125 17.6145833333333  C 11.6466264190958 17.6145833333333  11.89453125 17.8538311701425  11.89453125 18.1489583333333  C 11.89453125 18.4440854965242  11.6466264190958 18.6833333333333  11.3408203125 18.6833333333333  L 1.3740234375 18.6833333333333  C 1.06821733090425 18.6833333333333  0.8203125 18.4440854965242  0.8203125 18.1489583333333  C 0.8203125 17.8538311701425  1.06821733090425 17.6145833333333  1.3740234375 17.6145833333333  L 2.34486328125001 17.6145833333333  C 2.31191148367714 17.4985390417947  2.29576214336294 17.3786513872033  2.296875 17.2583333333333  L 2.296875 1.58333333333331  C 2.296875 0.79632756482448  2.95795454907795 0.15833333333336  3.7734375 0.15833333333336  L 16.32421875 0.15833333333336  Z " fill-rule="nonzero" fill="#ffffff" stroke="none" transform="matrix(1 0 0 1 424 323 )" />
  </g>
</svg>