<?xml version="1.0" encoding="utf-8"?>
<svg version="1.1" xmlns:xlink="http://www.w3.org/1999/xlink" width="17px" height="16px" xmlns="http://www.w3.org/2000/svg">
  <g transform="matrix(1 0 0 1 -428 -327 )">
    <path d="M 9.92299107142861 0.269230769230774  L 1.38504464285711 0.269230769230774  C 1.10212198641477 0.269230769230774  0.87276785714289 0.5016983029725  0.87276785714289 0.788461538461547  C 0.87276785714289 1.07522477395059  1.10212198641477 1.30769230769232  1.38504464285711 1.30769230769232  L 9.92299107142861 1.30769230769232  C 10.2059137278709 1.30769230769232  10.4352678571429 1.07522477395059  10.4352678571429 0.788461538461547  C 10.4352678571429 0.5016983029725  10.2059137278709 0.269230769230774  9.92299107142861 0.269230769230774  Z M 9.92299107142861 4.07692307692309  L 1.38504464285711 4.07692307692309  C 1.10212198641477 4.07692307692309  0.87276785714289 4.30939061066476  0.87276785714289 4.59615384615387  C 0.87276785714289 4.88291708164292  1.10212198641477 5.11538461538464  1.38504464285711 5.11538461538464  L 9.92299107142861 5.11538461538464  C 10.2059137278709 5.11538461538464  10.4352678571429 4.88291708164292  10.4352678571429 4.59615384615387  C 10.4352678571429 4.30939061066476  10.2059137278709 4.07692307692309  9.92299107142861 4.07692307692309  Z M 6.5078125 7.88461538461536  L 1.38504464285711 7.88461538461536  C 1.10212198641477 7.88461538461536  0.87276785714289 8.11708291835708  0.87276785714289 8.40384615384613  C 0.87276785714289 8.69060938933524  1.10212198641477 8.92307692307691  1.38504464285711 8.92307692307691  L 6.5078125 8.92307692307691  C 6.79073515644234 8.92307692307691  7.02008928571428 8.69060938933524  7.02008928571428 8.40384615384613  C 7.02008928571428 8.11708291835708  6.79073515644234 7.88461538461536  6.5078125 7.88461538461536  Z M 8.72767857142861 11.6923076923077  C 8.72767857142861 9.78055278904725  10.2567060999082 8.23076923076923  12.1428571428571 8.23076923076923  C 14.029008185806 8.23076923076923  15.5580357142857 9.78055278904725  15.5580357142857 11.6923076923077  C 15.5580357142857 13.6040625955681  14.029008185806 15.1538461538461  12.1428571428571 15.1538461538461  C 10.2567060999082 15.1538461538461  8.72767857142861 13.6040625955681  8.72767857142861 11.6923076923077  Z M 16.2410714285714 11.6923076923077  C 16.2410714285714 9.39820180839519  14.4062383943958 7.53846153846155  12.1428571428571 7.53846153846155  C 9.87947589131846 7.53846153846155  8.04464285714289 9.39820180839519  8.04464285714289 11.6923076923077  C 8.04464285714289 13.9864135762202  9.87947589131846 15.8461538461539  12.1428571428571 15.8461538461539  C 14.4062383943958 15.8461538461539  16.2410714285714 13.9864135762202  16.2410714285714 11.6923076923077  Z " fill-rule="nonzero" fill="#ffffff" stroke="none" transform="matrix(1 0 0 1 428 327 )" />
  </g>
</svg>