<?xml version="1.0" encoding="utf-8"?>
<svg version="1.1" xmlns:xlink="http://www.w3.org/1999/xlink" width="17px" height="7px" xmlns="http://www.w3.org/2000/svg">
  <g transform="matrix(1 0 0 1 -1476 -976 )">
    <path d="M 15.896291232639 2.37646874999996  C 13.9793789062501 4.9113984375  11.1235338541667 6.36614062499996  8.06042013888896 6.36614062499996  C 5.01522873263889 6.36614062499996  2.17115972222223 4.92632812500005  0.255796874999987 2.41781249999997  C -0.0219730902776973 2.05332031249998  0.0320520833333831 1.51809375000005  0.375519965277817 1.22485937500005  C 0.721312065972143 0.928289062499971  1.22360156250011 0.986312500000054  1.50297265624999 1.35080468750004  C 3.11164192708338 3.46004687499999  5.50192013888886 4.66957031250001  8.06036848958342 4.66957031250001  C 10.6345698784721 4.66957031250001  13.0341966145834 3.44675781249998  14.644467013889 1.31602343750001  C 14.9221853298611 0.951531250000016  15.4261276041666 0.893507812500047  15.7710933159722 1.18351562500004  C 16.1161623263888 1.47680468750002  16.17251171875 2.01028125000005  15.896291232639 2.37646874999996  Z " fill-rule="nonzero" fill="#3488f8" stroke="none" transform="matrix(1 0 0 1 1476 976 )" />
  </g>
</svg>