<?xml version="1.0" encoding="utf-8"?>
<svg version="1.1" xmlns:xlink="http://www.w3.org/1999/xlink" width="39px" height="38px" xmlns="http://www.w3.org/2000/svg">
  <g transform="matrix(1 0 0 1 -1466 -953 )">
    <path d="M 38.28384375 19.210234375  C 38.28384375 29.5598984375  29.8643750000001 37.980296875  19.5146562499999 37.980296875  C 9.16493749999995 37.980296875  0.745523437499969 29.5600625  0.745523437499969 19.2102890625  C 0.745523437499969 8.86051562499995  9.16493749999995 0.441156249999949  19.5146562499999 0.441156249999949  C 29.8643750000001 0.441156249999949  38.28384375 8.86057031250004  38.28384375 19.210234375  Z M 36.5872187499999 19.21034375  C 36.5872187499999 9.79676562500003  28.9282343750001 2.13778124999999  19.5146562499999 2.13778124999999  C 10.1011328125001 2.13778124999999  2.44214843750001 9.79671093750005  2.44214843750001 19.2102890625  C 2.44214843750001 28.6238671875  10.101078125 36.283671875  19.5146562499999 36.283671875  C 28.9282343750001 36.283671875  36.5872187499999 28.623921875  36.5872187499999 19.21034375  Z " fill-rule="nonzero" fill="#3488f8" stroke="none" transform="matrix(1 0 0 1 1466 953 )" />
  </g>
</svg>