<?xml version="1.0" encoding="utf-8"?>
<svg version="1.1" xmlns:xlink="http://www.w3.org/1999/xlink" width="40px" height="40px" xmlns="http://www.w3.org/2000/svg">
  <defs>
    <filter x="1461px" y="279px" width="40px" height="40px" filterUnits="userSpaceOnUse" id="filter32">
      <feOffset dx="1" dy="1" in="SourceAlpha" result="shadowOffsetInner" />
      <feGaussianBlur stdDeviation="2.5" in="shadowOffsetInner" result="shadowGaussian" />
      <feComposite in2="shadowGaussian" operator="atop" in="SourceAlpha" result="shadowComposite" />
      <feColorMatrix type="matrix" values="0 0 0 0 0  0 0 0 0 0  0 0 0 0 0  0 0 0 0.698039215686274 0  " in="shadowComposite" />
    </filter>
    <g id="widget33">
      <path d="M 1480 283  C 1488.4 283  1495 289.6  1495 298  C 1495 306.4  1488.4 313  1480 313  C 1471.6 313  1465 306.4  1465 298  C 1465 289.6  1471.6 283  1480 283  Z " fill-rule="nonzero" fill="#66ff99" stroke="none" />
      <path d="M 1480 283.5  C 1488.12 283.5  1494.5 289.88  1494.5 298  C 1494.5 306.12  1488.12 312.5  1480 312.5  C 1471.88 312.5  1465.5 306.12  1465.5 298  C 1465.5 289.88  1471.88 283.5  1480 283.5  Z " stroke-width="1" stroke="#ffffff" fill="none" />
    </g>
  </defs>
  <g transform="matrix(1 0 0 1 -1461 -279 )">
    <use xlink:href="#widget33" filter="url(#filter32)" />
    <use xlink:href="#widget33" />
  </g>
</svg>