<?xml version="1.0" encoding="utf-8"?>
<svg version="1.1" xmlns:xlink="http://www.w3.org/1999/xlink" width="40px" height="40px" xmlns="http://www.w3.org/2000/svg">
  <defs>
    <filter x="1461px" y="216px" width="40px" height="40px" filterUnits="userSpaceOnUse" id="filter205">
      <feOffset dx="1" dy="1" in="SourceAlpha" result="shadowOffsetInner" />
      <feGaussianBlur stdDeviation="2.5" in="shadowOffsetInner" result="shadowGaussian" />
      <feComposite in2="shadowGaussian" operator="atop" in="SourceAlpha" result="shadowComposite" />
      <feColorMatrix type="matrix" values="0 0 0 0 0  0 0 0 0 0  0 0 0 0 0  0 0 0 0.698039215686274 0  " in="shadowComposite" />
    </filter>
    <g id="widget206">
      <path d="M 1480 220  C 1488.4 220  1495 226.6  1495 235  C 1495 243.4  1488.4 250  1480 250  C 1471.6 250  1465 243.4  1465 235  C 1465 226.6  1471.6 220  1480 220  Z " fill-rule="nonzero" fill="#ffcc33" stroke="none" />
      <path d="M 1480 220.5  C 1488.12 220.5  1494.5 226.88  1494.5 235  C 1494.5 243.12  1488.12 249.5  1480 249.5  C 1471.88 249.5  1465.5 243.12  1465.5 235  C 1465.5 226.88  1471.88 220.5  1480 220.5  Z " stroke-width="1" stroke="#ffffff" fill="none" />
    </g>
  </defs>
  <g transform="matrix(1 0 0 1 -1461 -216 )">
    <use xlink:href="#widget206" filter="url(#filter205)" />
    <use xlink:href="#widget206" />
  </g>
</svg>