<?xml version="1.0" encoding="utf-8"?>
<svg version="1.1" xmlns:xlink="http://www.w3.org/1999/xlink" width="49px" height="43px" xmlns="http://www.w3.org/2000/svg">
  <g transform="matrix(1 0 0 1 -1341 -766 )">
    <path d="M 6.48046875 35.3014322916666  C 6.82682291666674 34.9468315972222  7 34.5269097222222  7 34.0416666666666  C 7 33.5564236111111  6.82682291666674 33.1365017361111  6.48046875 32.7819010416666  C 6.13411458333348 32.4273003472222  5.72395833333326 32.25  5.25 32.25  C 4.77604166666652 32.25  4.36588541666674 32.4273003472222  4.01953125 32.7819010416666  C 3.67317708333326 33.1365017361111  3.5 33.5564236111111  3.5 34.0416666666666  C 3.5 34.5269097222222  3.67317708333326 34.9468315972222  4.01953125 35.3014322916666  C 4.36588541666674 35.6560329861111  4.77604166666652 35.8333333333334  5.25 35.8333333333334  C 5.72395833333326 35.8333333333334  6.13411458333348 35.6560329861111  6.48046875 35.3014322916666  Z M 44.4609375 20.4361979166666  C 45.1536458333333 19.7269965277778  45.5 18.8871527777778  45.5 17.9166666666666  C 45.5 16.96484375  45.14453125 16.1296657986111  44.43359375 15.4111328125  C 43.72265625 14.6925998263889  42.9114583333333 14.3333333333334  42 15  L 26.25 15  C 26.25 13.9600694444445  26.38671875 13.5074869791666  26.66015625 12.9755859375  C 26.93359375 12.4436848958334  27.234375 11.9304470486111  27.5625 11.4358723958334  C 27.890625 10.9412977430555  28.19140625 10.3067491319445  28.46484375 9.5322265625  C 28.73828125 8.75770399305554  28.875 7.96918402777783  28.875 7.16666666666663  C 28.875 5.91623263888891  28.4694010416667 5.00640190972217  27.658203125 4.43717447916663  C 26.8470052083333 3.86794704861109  25.7942708333333 3.58333333333337  24.5 3.58333333333337  C 24.0625 3.58333333333337  23.2421875 4.88042534722217  22.0390625 7.474609375  C 21.6015625 8.29578993055554  21.2643229166667 8.90234375  21.02734375 9.29427083333337  C 20.2981770833335 10.4887152777778  19.27734375 11.841796875  17.96484375 13.353515625  C 16.6705729166667 14.865234375  15.75 15.8543836805555  15.203125 16.3209635416666  C 13.9453125 17.384765625  12.6692708333333 17.9166666666666  11.375 17.9166666666666  L 11 17.9166666666666  L 11 35.8333333333334  L 11.375 35.8333333333334  C 12.6875 35.8333333333334  14.2096354166667 36.1319444444445  15.94140625 36.7291666666666  C 17.6731770833333 37.3263888888889  19.4368489583335 37.9236111111111  21.232421875 38.5208333333334  C 23.0279947916667 39.1180555555555  24.6640625 39.4166666666666  26.140625 39.4166666666666  C 29.5859375 39.4166666666666  31.30859375 37.8582899305555  31.30859375 34.7415364583334  C 31.30859375 34.2562934027778  31.2630208333333 33.7337239583334  31.171875 33.173828125  C 31.71875 32.8752170138889  32.1516927083335 32.3853081597222  32.470703125 31.7041015625  C 32.7897135416667 31.0228949652778  32.94921875 30.3370225694445  32.94921875 29.646484375  C 32.94921875 28.9559461805555  32.78515625 28.3120659722222  32.45703125 27.71484375  C 33.4231770833333 26.7816840277778  33.90625 25.6712239583334  33.90625 24.3834635416666  C 33.90625 23.9168836805555  33.8151041666667 23.3989800347222  33.6328125 22.8297526041666  C 33.4505208333333 22.2605251736111  33.22265625 21.8172743055555  32.94921875 21.5  L 42 21.5  C 42.9479166666667 21.5  43.7682291666667 21.1453993055555  44.4609375 20.4361979166666  Z M 46.921875 12.8776041666666  C 48.3072916666667 14.2960069444445  49 15.9663628472222  49 17.888671875  C 49 19.8483072916666  48.3118489583333 21.5373263888889  46.935546875 22.9557291666666  C 45.5592447916665 24.3741319444445  43.9140625 25.0833333333334  42 25.0833333333334  L 37.37890625 25.0833333333334  C 37.3059895833333 26.2404513888889  36.96875 27.3509114583334  36.3671875 28.4147135416666  C 36.421875 28.806640625  36.44921875 29.2078993055555  36.44921875 29.6184895833334  C 36.44921875 31.5034722222222  35.90234375 33.1644965277778  34.80859375 34.6015625  C 34.8268229166665 37.1957465277778  34.0520833333333 39.2440321180555  32.484375 40.7464192708334  C 30.9166666666665 42.2488064236111  28.84765625 43  26.27734375 43  C 23.8528645833333 43  20.91796875 42.3561197916666  17.47265625 41.068359375  C 14.4830729166667 39.9672309027778  12.4505208333335 39.4166666666666  11.375 39.4166666666666  L 3.5 39.4166666666666  C 2.53385416666674 39.4166666666666  1.708984375 39.0667317708334  1.025390625 38.3668619791666  C 0.341796875 37.6669921875  0 36.8224826388889  0 35.8333333333334  L 0 17.9166666666666  C 0 16.9275173611111  0.341796875 16.0830078125  1.025390625 15.3831380208334  C 1.708984375 14.6832682291666  2.53385416666674 14.3333333333334  3.5 14.3333333333334  L 11.375 14.3333333333334  C 11.5572916666667 14.3333333333334  11.7532552083333 14.2913411458334  11.962890625 14.2073567708334  C 12.1725260416667 14.1233723958334  12.38671875 13.9927300347222  12.60546875 13.8154296875  C 12.82421875 13.6381293402778  13.029296875 13.4701605902778  13.220703125 13.3115234375  C 13.412109375 13.1528862847222  13.630859375 12.9429253472222  13.876953125 12.681640625  C 14.123046875 12.4203559027778  14.3098958333333 12.2197265625  14.4375 12.0797526041666  C 14.5651041666667 11.9397786458334  14.73828125 11.7391493055555  14.95703125 11.4778645833334  C 15.17578125 11.2165798611111  15.3033854166665 11.0579427083334  15.33984375 11.001953125  C 16.5247395833333 9.62087673611109  17.4361979166667 8.41710069444446  18.07421875 7.390625  C 18.3111979166667 6.99869791666663  18.6119791666667 6.42013888888891  18.9765625 5.65494791666663  C 19.3411458333335 4.88975694444446  19.6783854166667 4.21788194444446  19.98828125 3.63932291666663  C 20.2981770833335 3.06076388888891  20.6673177083335 2.47287326388891  21.095703125 1.87565104166663  C 21.5240885416665 1.27842881944446  22.025390625 0.816514756944457  22.599609375 0.489908854166629  C 23.173828125 0.163302951388914  23.8072916666667 0  24.5 0  C 26.7786458333333 0  28.6608072916667 0.625217013888914  30.146484375 1.87565104166663  C 31.6321614583333 3.12608506944446  32.375 4.88975694444446  32.375 7.16666666666663  C 32.375 8.43576388888891  32.1744791666667 9.63020833333337  31.7734375 11  L 42 11  C 43.8958333333333 10.75  45.5364583333333 11.4592013888889  46.921875 12.8776041666666  Z " fill-rule="nonzero" fill="#339966" stroke="none" transform="matrix(1 0 0 1 1341 766 )" />
  </g>
</svg>