<?xml version="1.0" encoding="utf-8"?>
<svg version="1.1" xmlns:xlink="http://www.w3.org/1999/xlink" width="15px" height="16px" xmlns="http://www.w3.org/2000/svg">
  <g transform="matrix(1 0 0 1 -132 -193 )">
    <path d="M 0.249999988403317 7.68377776953125  C 0.249999988403317 3.62622223046876  3.37510417053221 0.294888884765612  7.17708331787111 0.294888884765612  C 10.9790625 0.294888884765612  14.1041666473389 3.62622223046876  14.1041666821289 7.68377776953125  C 14.1041666821289 11.7392222304688  10.9790625 15.0726666542969  7.17708331787108 15.0726666542969  C 3.35811733515393 15.0553198091884  0.266262655692486 11.7573414844295  0.249999988403317 7.68377776953125  Z M 12.1250000115967 7.68377776953125  C 12.1250000115967 4.7915555390625  9.88854169372559 2.40600000000001  7.17708331787111 2.40600000000001  C 4.45116706068424 2.42329072285511  2.24537671161221 4.77613376186525  2.22916665893555 7.68377776953125  C 2.22916665893555 10.5738888847656  4.46760414733888 12.9615555390625  7.17708331787111 12.9615555390625  C 9.88854165893554 12.9615555390625  12.1249999768066 10.5738888847656  12.1250000115967 7.68377776953125  Z " fill-rule="nonzero" fill="#ffffff" stroke="none" transform="matrix(1 0 0 1 132 193 )" />
  </g>
</svg>