<?xml version="1.0" encoding="utf-8"?>
<svg version="1.1" xmlns:xlink="http://www.w3.org/1999/xlink" width="27px" height="32px" xmlns="http://www.w3.org/2000/svg">
  <g transform="matrix(1 0 0 1 -419 -178 )">
    <path d="M 23 8.37500000292968  L 23 26.3749999853516  C 23.0000000058594 27.4092499882813  22.1585000058594 28.2499999794922  21.1250000117187 28  L 4.62500001171878 28  C 3.58998005684043 28.2487602390313  2.75123975803905 27.4100199402298  3 26.3749999853516  L 3 8.37500000292968  C 2.74999998535156 7.34075000000001  3.59149998535156 6.50000000878907  4.62500001171878 6.50000000878907  L 6.75650001464845 6.50000000878907  L 6.60649999707033 7.99999999121093  L 5.37500000292965 7.99999999121093  C 4.753679657752 7.99999999121093  4.25 8.50367964896296  4.25 9.12499999414064  C 4.25 9.74632033931829  4.753679657752 10.2499999970703  5.37500000292965 10.2499999970703  L 20.3749999882812 10.2499999970703  C 20.9963203334589 10.2499999970703  21.4999999912109 9.74632033931829  21.4999999912109 9.12499999414064  C 21.4999999912109 8.50367964896296  20.9963203334589 7.99999999121093  20.3749999882812 7.99999999121093  L 19.1434999941407 7.99999999121093  L 18.9935000087891 6.50000000878907  L 21.1250000117187 6.50000000878907  C 22.1585000058594 6.50000000878907  23.0000000058594 7.34075000000001  23 8.37500000292968  Z M 9.24274998535157 4.25000000292968  L 9.35975000292967 3.08750001171876  C 9.37798543199102 2.89551346019508  9.53965129058963 2.74913590631101  9.73249998828123 2.74999998828125  L 16.0175000029297 2.74999998828125  C 16.2110000146484 2.74999998828125  16.3714999941406 2.89474997656251  16.3902499882813 3.08750001171876  L 16.5072500058594 4.25000000292968  L 16.881500008789 7.99999999121093  L 8.86850001464848 7.99999999121093  L 9.24349999414062 4.25000000292968  Z M 25 8.37500000292968  C 25.2500000117188 6.10100000585936  23.3997499853515 4.25000000292968  21.1250000117187 4.25000000292968  L 18.7677500058593 4.25000000292968  L 18.62975 2.86324999414063  C 18.4986363709838 1.51976837700633  17.3673593037529 0.496324790469089  16.0175000029297 0.500000014648435  L 9.73249998828123 0.500000014648435  C 8.38264068745809 0.496324790469089  7.2513636202271 1.51976837700633  7.12024999121093 2.86324999414063  L 6.98224998535153 4.25000000292968  L 4.62500001171878 4.25000000292968  C 2.34785349972412 4.25248010017063  0.502480108959674 6.09785349093502  1 8.37500000292968  L 1 26.3749999853516  C 0.500000011718726 28.6489999824219  2.35025000585938 30.4999999853516  4.62500001171878 30  L 21.1250000117187 30  C 23.3997500175781 30.4999999853516  25.2500000117188 28.6489999824219  25 26.3749999853516  L 25 8.37500000292968  Z M 19.1750000087891 13.4749999882812  C 18.6777220090584 13.1030743769644  17.9732476797078 13.2037135771677  17.5999999853516 13.7000000146484  L 11.5609999853515 21.7527499912109  L 7.97075000000001 18.7602499853516  C 7.77136398246802 18.6012554242738  7.52390238592727 18.5146693295688  7.26888463274224 18.5146693295688  C 6.6471500691481 18.5146693295688  6.14313462102342 19.0186847776935  6.14313462102342 19.6404193412876  C 6.14313462102342 19.9661675180858  6.28423680908912 20.2759456011285  6.53000000292968 20.4897500146485  L 10.4240000029297 23.7349999853516  C 10.8197480699338 24.0618943338606  11.3315493865641 24.2135391787606  11.8414999853516 24.1550000087891  C 12.3514521867193 24.0949238467442  12.8147341054396 23.8291463210308  13.1239999970703 23.4192499912109  L 19.4000000029297 15.0500000117187  C 19.546277019032 14.8551805756699  19.6253601859425 14.6181418266318  19.6253601859425 14.3745200334724  C 19.6253601859425 14.0202596496994  19.4584933444115 13.6866928232438  19.1750000087891 13.4742500117187  Z " fill-rule="nonzero" fill="#ffffff" stroke="none" transform="matrix(1 0 0 1 419 178 )" />
  </g>
</svg>