<?xml version="1.0" encoding="utf-8"?>
<svg version="1.1" xmlns:xlink="http://www.w3.org/1999/xlink" width="31px" height="34px" xmlns="http://www.w3.org/2000/svg">
  <g transform="matrix(1 0 0 1 -1256 -342 )">
    <path d="M 13.6254476695776 12.5267306823849  C 13.6254476695776 14.7473028751263  11.9857823822998 16.5483760885588  9.96114546910451 16.5517451718667  L 3.66430220065092 16.5517451718667  C 1.63966528745561 16.5483760885588  0 14.7473028751263  0 12.5267306823849  C 0 12.5184853251429  2.31008713171832E-05 12.5102399873645  6.93019311484022E-05 12.5019947858276  L 6.93019311484022E-05 5.62669330512955  C 0.00317356332561758 3.4085631034514  1.64188947827631 1.61126169506176  3.66430220065092 1.60785703860392  L 9.96114546910451 1.60785703860392  C 11.9835581914791 1.61126169506176  13.6222741064298 3.4085631034514  13.6253783678243 5.62669330512955  L 13.6253783678243 12.5019947858276  C 13.6254245688841 12.5102399873643  13.6254476695776 12.5184853251431  13.6254476695776 12.5267306823849  Z M 9.96114546910451 3.46270455843469  L 3.66430220065092 3.46270455843469  C 2.57461762237051 3.46270455843469  1.69125373047689 4.43155531639201  1.69125371449957 5.62669330512955  L 1.69125371449957 12.5019947858276  C 1.69125373047689 13.6971327745652  2.57461762237051 14.6659835325225  3.66430220065092 14.6659835325225  L 9.96114546910451 14.6659835325225  C 11.0508300473849 14.6659835325225  11.9341939392785 13.6971327745652  11.9341939552559 12.5019947858276  L 11.9341939552559 5.62669330512955  C 11.9341939392785 4.43155531639201  11.0508300473849 3.46270455843469  9.96114546910451 3.46270455843469  Z M 13.6254476697554 29.2203583291324  C 13.6254476697554 31.4409305219499  11.9857823823694 33.242003735414  9.96114546910451 33.2453728186145  L 3.66430220065092 33.2453728186145  C 1.63966528738604 33.242003735414  0 31.4409305219499  0 29.2203583291324  C 0 29.212112961314  2.31007527418114E-05 29.2038676129588  6.93019311484022E-05 29.1956224008461  L 6.93019311484022E-05 22.3203209518773  C 0.00317356332561758 20.1021907501992  1.64188947827631 18.3048893418095  3.66430220065092 18.3014846853517  L 9.96114546910451 18.3014846853517  C 11.9835581914791 18.3048893418095  13.6222741064298 20.1021907501992  13.6253783678243 22.3203209518773  L 13.6253783678243 29.1956224008461  C 13.6254245690027 29.2038676129588  13.6254476697554 29.212112961314  13.6254476697554 29.2203583291324  Z M 9.96114546910451 20.1563321734532  L 3.66430220065092 20.1563321734532  C 2.57461761107277 20.1563321734532  1.69125371449957 21.1251829507487  1.69125371449957 22.3203209518773  L 1.69125371449957 29.1956224008461  C 1.69125371449957 30.3907604019747  2.57461761107277 31.3596111792702  3.66430220065092 31.3596111792702  L 9.96114546910451 31.3596111792702  C 11.0508300586827 31.3596111792702  11.9341939552559 30.3907604019747  11.9341939552559 29.1956224008461  L 11.9341939552559 22.3203209518773  C 11.9341939552559 21.1251829507487  11.0508300586827 20.1563321734532  9.96114546910451 20.1563321734532  Z M 29.2181679125558 29.2203583291324  C 29.2181679125558 31.4409305219499  27.5785026251697 33.242003735414  25.553865711905 33.2453728186145  L 19.2626597237658 33.2453728186145  C 17.2402469901181 33.2419681621108  15.6015310705151 31.4446667344288  15.5984268250461 29.2265365203596  L 15.5984268250461 22.3203209518773  C 15.6015310864404 20.1021907501992  17.2402470013913 18.3048893418095  19.2626597237658 18.3014846853517  L 25.553865711905 18.3014846853517  C 27.5762784342794 18.3048893418095  29.2149943492302 20.1021907501992  29.2180986106246 22.3203209518773  L 29.2180986106246 29.1956224008461  C 29.2181448118031 29.2038676129592  29.2181679125558 29.2121129613136  29.2181679125558 29.2203583291324  Z M 25.553865711905 20.1563321734532  L 19.2626597237658 20.1563321734532  C 18.1729751341877 20.1563321734532  17.2896112376144 21.1251829507487  17.2896112376144 22.3203209518773  L 17.2896112376144 29.1956224008461  C 17.2896112376144 30.3907604019747  18.1729751341877 31.3596111792702  19.2626597237658 31.3596111792702  L 25.553865711905 31.3596111792702  C 26.8692313693391 31.3596111792702  24.2385000544707 31.3596111792702  25.553865711905 31.3596111792702  C 26.6435503014832 31.3596111792702  27.5269141980564 30.3907604019747  27.5269141980564 29.1956224008461  L 27.5269141980564 22.3203209518773  C 27.5269141980564 21.1251829507487  26.6435503014832 20.1563321734532  25.553865711905 20.1563321734532  Z M 24.995774873983 16.230238265468  C 24.3108674463369 16.9850103262492  23.3791770832298 17.4079999996501  22.4082627178353 17.4049750290851  C 21.435396241242 17.4096544733776  20.5013961777694 16.9865380126159  19.8151132813732 16.230238265468  L 15.8690163380001 11.902260740349  C 14.4420441615363 10.3315691776291  14.4420441615363 7.79093608942532  15.8690163380001 6.22024452670544  L 19.8151132813732 1.89226700158648  C 21.2472143385423 0.327200638417338  23.5636738168139 0.327200638417338  24.995774873983 1.89226700158648  L 28.9418718173561 6.22024452670544  C 30.3688439938201 7.79093608942532  30.3688439938201 10.3315691776291  28.9418718173561 11.902260740349  L 24.995774873983 16.230238265468  Z M 23.8006712158773 3.22775718667373  C 23.4293661568887 2.82778488626056  22.9286914204918 2.60546620545637  22.4082627178353 2.6094747012163  C 21.8858865000743 2.60382339172261  21.3829078820598 2.82626451267322  21.0102169394789 3.22775718667373  L 17.0641199961058 7.55573474352195  C 16.6940580866628 7.96156770721367  16.4861562964591 8.51202018137468  16.4861562964591 9.08598394500265  C 16.4861562964591 9.6599477086306  16.6940580866628 10.2104001827916  17.0641199961058 10.6162331464834  L 21.0102169394789 14.9442106716023  C 21.7928232962346 15.7568286373004  23.0180648591216 15.7568286373004  23.8006712158773 14.9442106716023  L 27.7467681592505 10.6162331464834  C 28.5142876021534 9.76972004435561  28.5142876021534 8.4022478456497  27.7467681592505 7.55573474352195  L 23.8006712158773 3.22775718667373  Z " fill-rule="nonzero" fill="#0ea7ad" stroke="none" transform="matrix(1 0 0 1 1256 342 )" />
  </g>
</svg>