<?xml version="1.0" encoding="utf-8"?>
<svg version="1.1" xmlns:xlink="http://www.w3.org/1999/xlink" width="81px" height="81px" xmlns="http://www.w3.org/2000/svg">
  <defs>
    <linearGradient gradientUnits="userSpaceOnUse" x1="40.5" y1="0" x2="40.5" y2="81" id="LinearGradient293">
      <stop id="Stop294" stop-color="#7ddebc" offset="0" />
      <stop id="Stop295" stop-color="#2b5ec0" offset="1" />
    </linearGradient>
  </defs>
  <g transform="matrix(1 0 0 1 -97 -828 )">
    <path d="M 71.8764267578125 51.023619140625  L 7.8952509765625 33.4288046875  L 0.6724814453125 64.0864736328125  L 46.453923828125 76.920939453125  L 71.8764267578125 51.023619140625  Z M 69.914861328125 60.658244140625  L 63.960759765625 60.658244140625  L 54.096501953125 71.588908203125  L 64.582830078125 74.254923828125  L 69.914861328125 60.658244140625  Z M 80.37328515625 60.4249677734375  L 71.8764267578125 60.658244140625  L 66.4555283203125 75.499064453125  L 73.114080078125 80.0479091796875  L 80.37328515625 60.4249677734375  Z M 29.2770517578125 37.7181572265625  L 29.2823837890625 37.7021611328125  L 29.2770517578125 37.7181572265625  Z M 29.2697646484375 37.7400185546875  L 29.2770517578125 37.71824609375  L 29.2697646484375 37.7400185546875  Z M 29.302556640625 37.641642578125  L 29.3001572265625 37.648751953125  L 29.302556640625 37.641642578125  Z M 29.2905595703125 37.677544921875  L 29.2912705078125 37.675412109375  L 29.2905595703125 37.677544921875  Z M 29.2697646484375 37.7400185546875  C 29.264166015625 37.756814453125  29.2653212890625 37.7533486328125  29.2697646484375 37.7400185546875  Z M 29.2823837890625 37.7021611328125  L 29.2905595703125 37.677544921875  L 29.2823837890625 37.7021611328125  Z M 49.875310546875 43.729044921875  L 51.2416435546875 40.4966787109375  C 51.2416435546875 39.907755859375  50.364080078125 38.308146484375  49.430974609375 38.219279296875  L 42 36.340982421875  L 42 0.1694599609375  L 38 0.1694599609375  L 38 34.737640625  L 32.679509765625 33.4288046875  C 31.035466796875 32.98446875  30.17469921875 34.112193359375  29.924626953125 34.531291015625  L 29.302556640625 37.641642578125  L 49.875310546875 43.729044921875  Z M 29.297935546875 37.655505859375  L 29.3001572265625 37.648751953125  L 29.297935546875 37.655505859375  Z M 29.2912705078125 37.675412109375  L 29.297935546875 37.655505859375  L 29.2912705078125 37.675412109375  Z " fill-rule="nonzero" fill="url(#LinearGradient293)" stroke="none" transform="matrix(1 0 0 1 97 828 )" />
  </g>
</svg>